<svg width="1440" height="1092" viewBox="0 0 1440 1092" fill="none" xmlns="http://www.w3.org/2000/svg">
<rect width="1440" height="1015" fill="#0A3656"/>
<g opacity="0.75">
<g filter="url(#filter0_f_145_3)">
<mask id="mask0_145_3" style="mask-type:alpha" maskUnits="userSpaceOnUse" x="-112" y="139" width="426" height="426">
<path fill-rule="evenodd" clip-rule="evenodd" d="M297.657 431.234C341.621 322.42 289.049 198.568 180.234 154.604C71.4196 110.64 -52.4321 163.212 -96.3961 272.027C-140.36 380.841 -87.7882 504.693 21.0266 548.657C129.841 592.621 253.693 540.049 297.657 431.234ZM222.836 401.005C250.105 333.512 217.497 256.693 150.005 229.424C82.512 202.155 5.69261 234.763 -21.5762 302.256C-48.845 369.748 -16.2372 446.568 51.2556 473.836C118.748 501.105 195.568 468.497 222.836 401.005Z" fill="#D9D9D9"/>
</mask>
<g mask="url(#mask0_145_3)">
<g filter="url(#filter1_f_145_3)">
<rect x="-178.098" y="689.658" width="402.584" height="344.304" transform="rotate(-68 -178.098 689.658)" fill="#EDA02E"/>
</g>
<g filter="url(#filter2_f_145_3)">
<rect x="152.359" y="510.816" width="361.34" height="167.669" transform="rotate(-68 152.359 510.816)" fill="#8E1CE8"/>
</g>
<g filter="url(#filter3_f_145_3)">
<rect x="-224.174" y="485.37" width="372.099" height="226.846" transform="rotate(-68 -224.174 485.37)" fill="#EB289D"/>
</g>
<g filter="url(#filter4_f_145_3)">
<circle cx="100.63" cy="351.63" r="136.804" transform="rotate(-68 100.63 351.63)" stroke="white" stroke-width="10"/>
</g>
<g filter="url(#filter5_f_145_3)">
<circle cx="100.63" cy="351.631" r="207.5" transform="rotate(-68 100.63 351.631)" stroke="white" stroke-width="10"/>
</g>
</g>
</g>
<mask id="mask1_145_3" style="mask-type:alpha" maskUnits="userSpaceOnUse" x="-112" y="139" width="426" height="426">
<path fill-rule="evenodd" clip-rule="evenodd" d="M297.657 431.234C341.621 322.42 289.049 198.568 180.234 154.604C71.4196 110.64 -52.4321 163.212 -96.3961 272.027C-140.36 380.841 -87.7882 504.693 21.0266 548.657C129.841 592.621 253.693 540.049 297.657 431.234ZM222.836 401.005C250.105 333.512 217.497 256.693 150.005 229.424C82.512 202.155 5.69261 234.763 -21.5762 302.256C-48.845 369.748 -16.2372 446.568 51.2556 473.836C118.748 501.105 195.568 468.497 222.836 401.005Z" fill="#D9D9D9"/>
</mask>
<g mask="url(#mask1_145_3)">
<g filter="url(#filter6_f_145_3)">
<rect x="-178.098" y="689.658" width="402.584" height="344.304" transform="rotate(-68 -178.098 689.658)" fill="#EDA02E"/>
</g>
<g filter="url(#filter7_f_145_3)">
<rect x="152.359" y="510.816" width="361.34" height="167.669" transform="rotate(-68 152.359 510.816)" fill="#8E1CE8"/>
</g>
<g filter="url(#filter8_f_145_3)">
<rect x="-224.174" y="485.37" width="372.099" height="226.846" transform="rotate(-68 -224.174 485.37)" fill="#EB289D"/>
</g>
<g filter="url(#filter9_f_145_3)">
<circle cx="100.63" cy="351.63" r="136.804" transform="rotate(-68 100.63 351.63)" stroke="white" stroke-width="10"/>
</g>
<g filter="url(#filter10_f_145_3)">
<circle cx="100.63" cy="351.631" r="207.5" transform="rotate(-68 100.63 351.631)" stroke="white" stroke-width="10"/>
</g>
</g>
</g>
<g opacity="0.75">
<g filter="url(#filter11_f_145_3)">
<mask id="mask2_145_3" style="mask-type:alpha" maskUnits="userSpaceOnUse" x="1154" y="541" width="426" height="426">
<path fill-rule="evenodd" clip-rule="evenodd" d="M1440.73 953.322C1550.8 912.614 1607.03 790.38 1566.32 680.306C1525.61 570.232 1403.38 514 1293.31 554.709C1183.23 595.418 1127 717.651 1167.71 827.725C1208.42 937.799 1330.65 994.031 1440.73 953.322ZM1412.73 877.636C1481.01 852.386 1515.89 776.57 1490.64 708.296C1465.39 640.023 1389.57 605.145 1321.3 630.394C1253.02 655.644 1218.15 731.46 1243.4 799.734C1268.65 868.007 1344.46 902.885 1412.73 877.636Z" fill="#D9D9D9"/>
</mask>
<g mask="url(#mask2_145_3)">
<g filter="url(#filter12_f_145_3)">
<rect x="929.412" y="775.325" width="402.584" height="344.304" transform="rotate(-20.2959 929.412 775.325)" fill="#EDA02E"/>
</g>
<g filter="url(#filter13_f_145_3)">
<rect x="1284.08" y="899.404" width="361.34" height="167.669" transform="rotate(-20.2959 1284.08 899.404)" fill="#8E1CE8"/>
</g>
<g filter="url(#filter14_f_145_3)">
<rect x="1049.51" y="603.766" width="372.099" height="226.846" transform="rotate(-20.2959 1049.51 603.766)" fill="#EB289D"/>
</g>
<g filter="url(#filter15_f_145_3)">
<circle cx="1367.02" cy="754.015" r="136.804" transform="rotate(-20.2959 1367.02 754.015)" stroke="white" stroke-width="10"/>
</g>
<g filter="url(#filter16_f_145_3)">
<circle cx="1367.02" cy="754.016" r="207.5" transform="rotate(-20.2959 1367.02 754.016)" stroke="white" stroke-width="10"/>
</g>
</g>
</g>
<mask id="mask3_145_3" style="mask-type:alpha" maskUnits="userSpaceOnUse" x="1154" y="541" width="426" height="426">
<path fill-rule="evenodd" clip-rule="evenodd" d="M1440.73 953.322C1550.8 912.614 1607.03 790.38 1566.32 680.306C1525.61 570.232 1403.38 514 1293.31 554.709C1183.23 595.418 1127 717.651 1167.71 827.725C1208.42 937.799 1330.65 994.031 1440.73 953.322ZM1412.73 877.636C1481.01 852.386 1515.89 776.57 1490.64 708.296C1465.39 640.023 1389.57 605.145 1321.3 630.394C1253.02 655.644 1218.15 731.46 1243.4 799.734C1268.65 868.007 1344.46 902.885 1412.73 877.636Z" fill="#D9D9D9"/>
</mask>
<g mask="url(#mask3_145_3)">
<g filter="url(#filter17_f_145_3)">
<rect x="929.412" y="775.325" width="402.584" height="344.304" transform="rotate(-20.2959 929.412 775.325)" fill="#EDA02E"/>
</g>
<g filter="url(#filter18_f_145_3)">
<rect x="1284.08" y="899.404" width="361.34" height="167.669" transform="rotate(-20.2959 1284.08 899.404)" fill="#8E1CE8"/>
</g>
<g filter="url(#filter19_f_145_3)">
<rect x="1049.51" y="603.766" width="372.099" height="226.846" transform="rotate(-20.2959 1049.51 603.766)" fill="#EB289D"/>
</g>
<g filter="url(#filter20_f_145_3)">
<circle cx="1367.02" cy="754.015" r="136.804" transform="rotate(-20.2959 1367.02 754.015)" stroke="white" stroke-width="10"/>
</g>
<g filter="url(#filter21_f_145_3)">
<circle cx="1367.02" cy="754.016" r="207.5" transform="rotate(-20.2959 1367.02 754.016)" stroke="white" stroke-width="10"/>
</g>
</g>
</g>
<defs>
<filter id="filter0_f_145_3" x="-236.426" y="14.5742" width="674.113" height="674.113" filterUnits="userSpaceOnUse" color-interpolation-filters="sRGB">
<feFlood flood-opacity="0" result="BackgroundImageFix"/>
<feBlend mode="normal" in="SourceGraphic" in2="BackgroundImageFix" result="shape"/>
<feGaussianBlur stdDeviation="62.25" result="effect1_foregroundBlur_145_3"/>
</filter>
<filter id="filter1_f_145_3" x="-278.098" y="216.388" width="670.043" height="702.248" filterUnits="userSpaceOnUse" color-interpolation-filters="sRGB">
<feFlood flood-opacity="0" result="BackgroundImageFix"/>
<feBlend mode="normal" in="SourceGraphic" in2="BackgroundImageFix" result="shape"/>
<feGaussianBlur stdDeviation="50" result="effect1_foregroundBlur_145_3"/>
</filter>
<filter id="filter2_f_145_3" x="52.3594" y="75.7881" width="490.82" height="597.838" filterUnits="userSpaceOnUse" color-interpolation-filters="sRGB">
<feFlood flood-opacity="0" result="BackgroundImageFix"/>
<feBlend mode="normal" in="SourceGraphic" in2="BackgroundImageFix" result="shape"/>
<feGaussianBlur stdDeviation="50" result="effect1_foregroundBlur_145_3"/>
</filter>
<filter id="filter3_f_145_3" x="-324.174" y="40.366" width="549.719" height="629.982" filterUnits="userSpaceOnUse" color-interpolation-filters="sRGB">
<feFlood flood-opacity="0" result="BackgroundImageFix"/>
<feBlend mode="normal" in="SourceGraphic" in2="BackgroundImageFix" result="shape"/>
<feGaussianBlur stdDeviation="50" result="effect1_foregroundBlur_145_3"/>
</filter>
<filter id="filter4_f_145_3" x="-70.4109" y="180.589" width="342.082" height="342.083" filterUnits="userSpaceOnUse" color-interpolation-filters="sRGB">
<feFlood flood-opacity="0" result="BackgroundImageFix"/>
<feBlend mode="normal" in="SourceGraphic" in2="BackgroundImageFix" result="shape"/>
<feGaussianBlur stdDeviation="14.6" result="effect1_foregroundBlur_145_3"/>
</filter>
<filter id="filter5_f_145_3" x="-141.126" y="109.874" width="483.513" height="483.513" filterUnits="userSpaceOnUse" color-interpolation-filters="sRGB">
<feFlood flood-opacity="0" result="BackgroundImageFix"/>
<feBlend mode="normal" in="SourceGraphic" in2="BackgroundImageFix" result="shape"/>
<feGaussianBlur stdDeviation="14.6" result="effect1_foregroundBlur_145_3"/>
</filter>
<filter id="filter6_f_145_3" x="-278.098" y="216.388" width="670.043" height="702.248" filterUnits="userSpaceOnUse" color-interpolation-filters="sRGB">
<feFlood flood-opacity="0" result="BackgroundImageFix"/>
<feBlend mode="normal" in="SourceGraphic" in2="BackgroundImageFix" result="shape"/>
<feGaussianBlur stdDeviation="50" result="effect1_foregroundBlur_145_3"/>
</filter>
<filter id="filter7_f_145_3" x="52.3594" y="75.7881" width="490.82" height="597.838" filterUnits="userSpaceOnUse" color-interpolation-filters="sRGB">
<feFlood flood-opacity="0" result="BackgroundImageFix"/>
<feBlend mode="normal" in="SourceGraphic" in2="BackgroundImageFix" result="shape"/>
<feGaussianBlur stdDeviation="50" result="effect1_foregroundBlur_145_3"/>
</filter>
<filter id="filter8_f_145_3" x="-324.174" y="40.366" width="549.719" height="629.982" filterUnits="userSpaceOnUse" color-interpolation-filters="sRGB">
<feFlood flood-opacity="0" result="BackgroundImageFix"/>
<feBlend mode="normal" in="SourceGraphic" in2="BackgroundImageFix" result="shape"/>
<feGaussianBlur stdDeviation="50" result="effect1_foregroundBlur_145_3"/>
</filter>
<filter id="filter9_f_145_3" x="-70.4109" y="180.589" width="342.082" height="342.083" filterUnits="userSpaceOnUse" color-interpolation-filters="sRGB">
<feFlood flood-opacity="0" result="BackgroundImageFix"/>
<feBlend mode="normal" in="SourceGraphic" in2="BackgroundImageFix" result="shape"/>
<feGaussianBlur stdDeviation="14.6" result="effect1_foregroundBlur_145_3"/>
</filter>
<filter id="filter10_f_145_3" x="-141.126" y="109.874" width="483.513" height="483.513" filterUnits="userSpaceOnUse" color-interpolation-filters="sRGB">
<feFlood flood-opacity="0" result="BackgroundImageFix"/>
<feBlend mode="normal" in="SourceGraphic" in2="BackgroundImageFix" result="shape"/>
<feGaussianBlur stdDeviation="14.6" result="effect1_foregroundBlur_145_3"/>
</filter>
<filter id="filter11_f_145_3" x="1029.96" y="416.958" width="674.115" height="674.115" filterUnits="userSpaceOnUse" color-interpolation-filters="sRGB">
<feFlood flood-opacity="0" result="BackgroundImageFix"/>
<feBlend mode="normal" in="SourceGraphic" in2="BackgroundImageFix" result="shape"/>
<feGaussianBlur stdDeviation="62.25" result="effect1_foregroundBlur_145_3"/>
</filter>
<filter id="filter12_f_145_3" x="829.412" y="535.681" width="697.018" height="662.571" filterUnits="userSpaceOnUse" color-interpolation-filters="sRGB">
<feFlood flood-opacity="0" result="BackgroundImageFix"/>
<feBlend mode="normal" in="SourceGraphic" in2="BackgroundImageFix" result="shape"/>
<feGaussianBlur stdDeviation="50" result="effect1_foregroundBlur_145_3"/>
</filter>
<filter id="filter13_f_145_3" x="1184.08" y="674.066" width="597.064" height="482.596" filterUnits="userSpaceOnUse" color-interpolation-filters="sRGB">
<feFlood flood-opacity="0" result="BackgroundImageFix"/>
<feBlend mode="normal" in="SourceGraphic" in2="BackgroundImageFix" result="shape"/>
<feGaussianBlur stdDeviation="50" result="effect1_foregroundBlur_145_3"/>
</filter>
<filter id="filter14_f_145_3" x="949.512" y="374.696" width="627.682" height="541.832" filterUnits="userSpaceOnUse" color-interpolation-filters="sRGB">
<feFlood flood-opacity="0" result="BackgroundImageFix"/>
<feBlend mode="normal" in="SourceGraphic" in2="BackgroundImageFix" result="shape"/>
<feGaussianBlur stdDeviation="50" result="effect1_foregroundBlur_145_3"/>
</filter>
<filter id="filter15_f_145_3" x="1195.97" y="582.973" width="342.086" height="342.085" filterUnits="userSpaceOnUse" color-interpolation-filters="sRGB">
<feFlood flood-opacity="0" result="BackgroundImageFix"/>
<feBlend mode="normal" in="SourceGraphic" in2="BackgroundImageFix" result="shape"/>
<feGaussianBlur stdDeviation="14.6" result="effect1_foregroundBlur_145_3"/>
</filter>
<filter id="filter16_f_145_3" x="1125.26" y="512.258" width="483.515" height="483.515" filterUnits="userSpaceOnUse" color-interpolation-filters="sRGB">
<feFlood flood-opacity="0" result="BackgroundImageFix"/>
<feBlend mode="normal" in="SourceGraphic" in2="BackgroundImageFix" result="shape"/>
<feGaussianBlur stdDeviation="14.6" result="effect1_foregroundBlur_145_3"/>
</filter>
<filter id="filter17_f_145_3" x="829.412" y="535.681" width="697.018" height="662.571" filterUnits="userSpaceOnUse" color-interpolation-filters="sRGB">
<feFlood flood-opacity="0" result="BackgroundImageFix"/>
<feBlend mode="normal" in="SourceGraphic" in2="BackgroundImageFix" result="shape"/>
<feGaussianBlur stdDeviation="50" result="effect1_foregroundBlur_145_3"/>
</filter>
<filter id="filter18_f_145_3" x="1184.08" y="674.066" width="597.064" height="482.596" filterUnits="userSpaceOnUse" color-interpolation-filters="sRGB">
<feFlood flood-opacity="0" result="BackgroundImageFix"/>
<feBlend mode="normal" in="SourceGraphic" in2="BackgroundImageFix" result="shape"/>
<feGaussianBlur stdDeviation="50" result="effect1_foregroundBlur_145_3"/>
</filter>
<filter id="filter19_f_145_3" x="949.512" y="374.696" width="627.682" height="541.832" filterUnits="userSpaceOnUse" color-interpolation-filters="sRGB">
<feFlood flood-opacity="0" result="BackgroundImageFix"/>
<feBlend mode="normal" in="SourceGraphic" in2="BackgroundImageFix" result="shape"/>
<feGaussianBlur stdDeviation="50" result="effect1_foregroundBlur_145_3"/>
</filter>
<filter id="filter20_f_145_3" x="1195.97" y="582.973" width="342.086" height="342.085" filterUnits="userSpaceOnUse" color-interpolation-filters="sRGB">
<feFlood flood-opacity="0" result="BackgroundImageFix"/>
<feBlend mode="normal" in="SourceGraphic" in2="BackgroundImageFix" result="shape"/>
<feGaussianBlur stdDeviation="14.6" result="effect1_foregroundBlur_145_3"/>
</filter>
<filter id="filter21_f_145_3" x="1125.26" y="512.258" width="483.515" height="483.515" filterUnits="userSpaceOnUse" color-interpolation-filters="sRGB">
<feFlood flood-opacity="0" result="BackgroundImageFix"/>
<feBlend mode="normal" in="SourceGraphic" in2="BackgroundImageFix" result="shape"/>
<feGaussianBlur stdDeviation="14.6" result="effect1_foregroundBlur_145_3"/>
</filter>
</defs>
</svg>
