<svg width="411" height="676" viewBox="0 0 411 676" fill="none" xmlns="http://www.w3.org/2000/svg">
<g opacity="0.75">
<g filter="url(#filter0_f_98_810)">
<mask id="mask0_98_810" style="mask-type:alpha" maskUnits="userSpaceOnUse" x="125" y="125" width="426" height="426">
<path fill-rule="evenodd" clip-rule="evenodd" d="M411.726 537.323C521.8 496.614 578.032 374.381 537.323 264.307C496.614 154.233 374.381 98.0009 264.307 138.71C154.233 179.418 98.0009 301.652 138.71 411.726C179.418 521.8 301.652 578.032 411.726 537.323ZM383.735 461.636C452.009 436.387 486.887 360.571 461.637 292.297C436.387 224.023 360.572 189.145 292.298 214.395C224.024 239.645 189.146 315.461 214.396 383.734C239.645 452.008 315.461 486.886 383.735 461.636Z" fill="#D9D9D9"/>
</mask>
<g mask="url(#mask0_98_810)">
<g filter="url(#filter1_f_98_810)">
<rect x="-99.5879" y="359.326" width="402.584" height="344.304" transform="rotate(-20.2959 -99.5879 359.326)" fill="#EDA02E"/>
</g>
<g filter="url(#filter2_f_98_810)">
<rect x="255.082" y="483.405" width="361.34" height="167.669" transform="rotate(-20.2959 255.082 483.405)" fill="#8E1CE8"/>
</g>
<g filter="url(#filter3_f_98_810)">
<rect x="20.5117" y="187.766" width="372.099" height="226.846" transform="rotate(-20.2959 20.5117 187.766)" fill="#EB289D"/>
</g>
<g filter="url(#filter4_f_98_810)">
<circle cx="338.017" cy="338.016" r="136.804" transform="rotate(-20.2959 338.017 338.016)" stroke="white" stroke-width="10"/>
</g>
<g filter="url(#filter5_f_98_810)">
<circle cx="338.016" cy="338.016" r="207.5" transform="rotate(-20.2959 338.016 338.016)" stroke="white" stroke-width="10"/>
</g>
</g>
</g>
<mask id="mask1_98_810" style="mask-type:alpha" maskUnits="userSpaceOnUse" x="125" y="125" width="426" height="426">
<path fill-rule="evenodd" clip-rule="evenodd" d="M411.726 537.323C521.8 496.614 578.032 374.381 537.323 264.307C496.614 154.233 374.381 98.0009 264.307 138.71C154.233 179.418 98.0009 301.652 138.71 411.726C179.418 521.8 301.652 578.032 411.726 537.323ZM383.735 461.636C452.009 436.387 486.887 360.571 461.637 292.297C436.387 224.023 360.572 189.145 292.298 214.395C224.024 239.645 189.146 315.461 214.396 383.734C239.645 452.008 315.461 486.886 383.735 461.636Z" fill="#D9D9D9"/>
</mask>
<g mask="url(#mask1_98_810)">
<g filter="url(#filter6_f_98_810)">
<rect x="-99.5879" y="359.326" width="402.584" height="344.304" transform="rotate(-20.2959 -99.5879 359.326)" fill="#EDA02E"/>
</g>
<g filter="url(#filter7_f_98_810)">
<rect x="255.082" y="483.405" width="361.34" height="167.669" transform="rotate(-20.2959 255.082 483.405)" fill="#8E1CE8"/>
</g>
<g filter="url(#filter8_f_98_810)">
<rect x="20.5117" y="187.766" width="372.099" height="226.846" transform="rotate(-20.2959 20.5117 187.766)" fill="#EB289D"/>
</g>
<g filter="url(#filter9_f_98_810)">
<circle cx="338.017" cy="338.016" r="136.804" transform="rotate(-20.2959 338.017 338.016)" stroke="white" stroke-width="10"/>
</g>
<g filter="url(#filter10_f_98_810)">
<circle cx="338.016" cy="338.016" r="207.5" transform="rotate(-20.2959 338.016 338.016)" stroke="white" stroke-width="10"/>
</g>
</g>
</g>
<defs>
<filter id="filter0_f_98_810" x="0.958984" y="0.958496" width="674.115" height="674.115" filterUnits="userSpaceOnUse" color-interpolation-filters="sRGB">
<feFlood flood-opacity="0" result="BackgroundImageFix"/>
<feBlend mode="normal" in="SourceGraphic" in2="BackgroundImageFix" result="shape"/>
<feGaussianBlur stdDeviation="62.25" result="effect1_foregroundBlur_98_810"/>
</filter>
<filter id="filter1_f_98_810" x="-199.588" y="119.682" width="697.018" height="662.571" filterUnits="userSpaceOnUse" color-interpolation-filters="sRGB">
<feFlood flood-opacity="0" result="BackgroundImageFix"/>
<feBlend mode="normal" in="SourceGraphic" in2="BackgroundImageFix" result="shape"/>
<feGaussianBlur stdDeviation="50" result="effect1_foregroundBlur_98_810"/>
</filter>
<filter id="filter2_f_98_810" x="155.082" y="258.067" width="597.064" height="482.596" filterUnits="userSpaceOnUse" color-interpolation-filters="sRGB">
<feFlood flood-opacity="0" result="BackgroundImageFix"/>
<feBlend mode="normal" in="SourceGraphic" in2="BackgroundImageFix" result="shape"/>
<feGaussianBlur stdDeviation="50" result="effect1_foregroundBlur_98_810"/>
</filter>
<filter id="filter3_f_98_810" x="-79.4883" y="-41.3032" width="627.682" height="541.832" filterUnits="userSpaceOnUse" color-interpolation-filters="sRGB">
<feFlood flood-opacity="0" result="BackgroundImageFix"/>
<feBlend mode="normal" in="SourceGraphic" in2="BackgroundImageFix" result="shape"/>
<feGaussianBlur stdDeviation="50" result="effect1_foregroundBlur_98_810"/>
</filter>
<filter id="filter4_f_98_810" x="166.974" y="166.973" width="342.086" height="342.085" filterUnits="userSpaceOnUse" color-interpolation-filters="sRGB">
<feFlood flood-opacity="0" result="BackgroundImageFix"/>
<feBlend mode="normal" in="SourceGraphic" in2="BackgroundImageFix" result="shape"/>
<feGaussianBlur stdDeviation="14.6" result="effect1_foregroundBlur_98_810"/>
</filter>
<filter id="filter5_f_98_810" x="96.259" y="96.2585" width="483.515" height="483.515" filterUnits="userSpaceOnUse" color-interpolation-filters="sRGB">
<feFlood flood-opacity="0" result="BackgroundImageFix"/>
<feBlend mode="normal" in="SourceGraphic" in2="BackgroundImageFix" result="shape"/>
<feGaussianBlur stdDeviation="14.6" result="effect1_foregroundBlur_98_810"/>
</filter>
<filter id="filter6_f_98_810" x="-199.588" y="119.682" width="697.018" height="662.571" filterUnits="userSpaceOnUse" color-interpolation-filters="sRGB">
<feFlood flood-opacity="0" result="BackgroundImageFix"/>
<feBlend mode="normal" in="SourceGraphic" in2="BackgroundImageFix" result="shape"/>
<feGaussianBlur stdDeviation="50" result="effect1_foregroundBlur_98_810"/>
</filter>
<filter id="filter7_f_98_810" x="155.082" y="258.067" width="597.064" height="482.596" filterUnits="userSpaceOnUse" color-interpolation-filters="sRGB">
<feFlood flood-opacity="0" result="BackgroundImageFix"/>
<feBlend mode="normal" in="SourceGraphic" in2="BackgroundImageFix" result="shape"/>
<feGaussianBlur stdDeviation="50" result="effect1_foregroundBlur_98_810"/>
</filter>
<filter id="filter8_f_98_810" x="-79.4883" y="-41.3032" width="627.682" height="541.832" filterUnits="userSpaceOnUse" color-interpolation-filters="sRGB">
<feFlood flood-opacity="0" result="BackgroundImageFix"/>
<feBlend mode="normal" in="SourceGraphic" in2="BackgroundImageFix" result="shape"/>
<feGaussianBlur stdDeviation="50" result="effect1_foregroundBlur_98_810"/>
</filter>
<filter id="filter9_f_98_810" x="166.974" y="166.973" width="342.086" height="342.085" filterUnits="userSpaceOnUse" color-interpolation-filters="sRGB">
<feFlood flood-opacity="0" result="BackgroundImageFix"/>
<feBlend mode="normal" in="SourceGraphic" in2="BackgroundImageFix" result="shape"/>
<feGaussianBlur stdDeviation="14.6" result="effect1_foregroundBlur_98_810"/>
</filter>
<filter id="filter10_f_98_810" x="96.259" y="96.2585" width="483.515" height="483.515" filterUnits="userSpaceOnUse" color-interpolation-filters="sRGB">
<feFlood flood-opacity="0" result="BackgroundImageFix"/>
<feBlend mode="normal" in="SourceGraphic" in2="BackgroundImageFix" result="shape"/>
<feGaussianBlur stdDeviation="14.6" result="effect1_foregroundBlur_98_810"/>
</filter>
</defs>
</svg>
