<svg width="225" height="51" viewBox="0 0 225 51" fill="none" xmlns="http://www.w3.org/2000/svg">
<path d="M21.8008 18.1523H0.804688V15.8086H21.8008V18.1523ZM17.6016 26.7266C17.6016 23.6016 16.1237 22.0391 13.168 22.0391C12.3086 22.0391 11.4232 22.293 10.5117 22.8008C9.61328 23.3086 8.80599 24.0117 8.08984 24.9102C7.38672 25.8086 6.8138 26.8763 6.37109 28.1133C5.94141 29.3503 5.72656 30.6328 5.72656 31.9609V37.6445L2.52344 35.9648V21.2773H5.88281V23.6016C6.15625 23.3932 6.60547 23.0417 7.23047 22.5469C7.86849 22.0521 8.63672 21.5964 9.53516 21.1797C10.4466 20.763 11.4297 20.5547 12.4844 20.5547C13.513 20.5547 14.5026 20.776 15.4531 21.2188C16.4036 21.6615 17.25 22.2799 17.9922 23.0742C18.7344 23.8685 19.3203 24.806 19.75 25.8867C20.1797 26.9544 20.3945 28.1003 20.3945 29.3242C20.3945 30.7044 20.0951 32.1172 19.4961 33.5625C18.8971 34.9948 17.9466 36.4206 16.6445 37.8398L12.875 35.4766C13.1094 35.1641 13.5456 34.7083 14.1836 34.1094C14.8216 33.5104 15.3815 32.9049 15.8633 32.293C16.3451 31.668 16.7552 30.8997 17.0938 29.9883C17.4323 29.0638 17.6016 27.9766 17.6016 26.7266ZM28.1094 13.7578C28.0573 13.8099 27.9076 13.8359 27.6602 13.8359C27.4518 13.8359 27.2695 13.8099 27.1133 13.7578C26.1758 11.9219 25.5768 10.8021 25.3164 10.3984C25.0299 10.0078 24.6654 9.75391 24.2227 9.63672C23.793 9.51953 23.3828 9.40885 22.9922 9.30469C22.6146 9.1875 22.3086 8.92708 22.0742 8.52344C22.0221 8.44531 21.9245 8.14583 21.7812 7.625C21.638 7.09115 21.3581 6.47266 20.9414 5.76953V5.32031H21.7031C23.2266 5.78906 24.3073 6.21875 24.9453 6.60938C25.5833 6.98698 25.987 7.35807 26.1562 7.72266C26.3385 8.07422 26.5924 8.8099 26.918 9.92969C27.2435 11.0365 27.6276 12.0326 28.0703 12.918C28.0833 13.0352 28.0898 13.1458 28.0898 13.25C28.1029 13.3411 28.1094 13.5104 28.1094 13.7578ZM29.2617 18.1523H21.3125V15.8086H29.2617V18.1523ZM27.0352 37.4492L23.7539 35.6328V20.5547H27.0352V37.4492ZM54.1641 15.8086L54.125 18.1523H52.1328V21.8828C52.1328 21.9219 51.5794 22.918 50.4727 24.8711C49.3789 26.8112 48.1094 29.0508 46.6641 31.5898C45.2188 34.1159 44.1836 35.9323 43.5586 37.0391C43.1289 37.0391 42.4844 36.8047 41.625 36.3359C40.7786 35.8542 39.9062 35.1771 39.0078 34.3047C38.1094 33.4193 37.3672 32.4102 36.7812 31.2773C36.2083 30.1315 35.9219 28.9076 35.9219 27.6055C35.9219 26.7591 36.0326 26.0885 36.2539 25.5938C36.4753 25.099 36.7682 24.6107 37.1328 24.1289C37.4974 23.6341 37.6797 23.2565 37.6797 22.9961C37.6797 22.5404 37.2956 22.3125 36.5273 22.3125C36.0456 22.3125 35.6289 22.4362 35.2773 22.6836C34.9388 22.931 34.3789 23.5039 33.5977 24.4023L31.0781 22.1172C31.5599 21.7135 32.0026 21.4076 32.4062 21.1992C32.8229 20.9909 33.2135 20.8542 33.5781 20.7891C33.9557 20.7109 34.4831 20.6589 35.1602 20.6328C37.2565 20.6328 38.6628 21.1667 39.3789 22.2344C40.0951 23.2891 40.4531 24.6367 40.4531 26.2773C40.4531 26.4076 40.3945 27.0065 40.2773 28.0742C40.1732 29.1289 40.1211 30.0534 40.1211 30.8477C40.1211 32.9049 40.4792 34.0247 41.1953 34.207C41.5859 34.207 42.0677 33.7122 42.6406 32.7227L48.5977 21.9609V18.1523H28.8125V15.8086H54.1641ZM74.5742 18.1523H69.2422V22C69.5938 22.0781 69.8867 22.1758 70.1211 22.293C70.3555 22.3971 70.5052 22.4753 70.5703 22.5273V24.832C69.0208 24.2982 67.4062 24.0312 65.7266 24.0312C64.5807 24.0312 63.3372 24.2656 61.9961 24.7344C60.6549 25.2031 59.9648 25.9323 59.9258 26.9219C59.9258 27.9635 61.4036 28.4844 64.3594 28.4844C64.6068 28.4844 65.0299 28.4714 65.6289 28.4453C66.2279 28.4062 66.6185 28.3802 66.8008 28.3672V30.1641C65.8633 30.1901 64.7826 30.2422 63.5586 30.3203C62.3346 30.3854 61.2344 30.6198 60.2578 31.0234C59.2943 31.4271 58.8125 32.0846 58.8125 32.9961C58.8125 33.7513 59.2552 34.3698 60.1406 34.8516C61.0391 35.3203 62.0482 35.5547 63.168 35.5547C65.4206 35.5547 67.3997 35.0404 69.1055 34.0117C70.8242 32.9701 72.2695 31.6094 73.4414 29.9297V34.8711C72.0612 35.7435 70.7266 36.3164 69.4375 36.5898C68.1484 36.8633 66.8333 37 65.4922 37C64.1771 37 62.6927 36.8047 61.0391 36.4141C59.3984 36.0104 57.9857 35.4375 56.8008 34.6953C55.6289 33.9401 55.043 33.0677 55.043 32.0781C55.043 31.0755 55.4206 30.2812 56.1758 29.6953C56.944 29.1094 57.8229 28.582 58.8125 28.1133C58.2917 27.8138 57.8555 27.5664 57.5039 27.3711C57.1654 27.1758 56.8919 26.9414 56.6836 26.668C56.4753 26.3945 56.3711 26.0365 56.3711 25.5938C56.3711 24.7344 56.7161 24.0182 57.4062 23.4453C58.1094 22.8594 58.9818 22.4167 60.0234 22.1172C61.0651 21.8177 62.1263 21.6094 63.207 21.4922C64.2878 21.375 65.3034 21.3164 66.2539 21.3164V18.1523H53.7344V15.8086H74.5742V18.1523ZM94.1641 18.1523H92.0352V25.5547C91.2799 25.112 90.1992 24.7279 88.793 24.4023C87.3867 24.0768 86.1888 23.9141 85.1992 23.9141C84.3789 23.9141 83.3958 24.0117 82.25 24.207C81.1172 24.3893 80.0951 24.7214 79.1836 25.2031C78.2852 25.6719 77.8359 26.2969 77.8359 27.0781C77.8359 27.4036 77.9661 27.7487 78.2266 28.1133C78.5 28.4648 78.9167 28.6406 79.4766 28.6406C80.0885 28.6406 80.974 28.4323 82.1328 28.0156C83.3047 27.5859 84.1641 27.293 84.7109 27.1367C85.2708 26.9674 86.0846 26.8828 87.1523 26.8828C88.1549 26.8828 89.1055 27.0651 90.0039 27.4297C90.9154 27.7812 91.638 28.2956 92.1719 28.9727C92.7188 29.6497 92.9922 30.431 92.9922 31.3164C92.9922 32.3711 92.6081 33.3281 91.8398 34.1875C91.0716 35.0469 90.1471 35.724 89.0664 36.2188C87.9987 36.7005 86.9766 36.974 86 37.0391C86.9375 37.9766 87.8294 38.4453 88.6758 38.4453C88.9492 38.4453 89.2422 38.4062 89.5547 38.3281L91.5273 41.5508C91.4232 41.6419 91.1693 41.7526 90.7656 41.8828C90.375 42.013 89.8021 42.0781 89.0469 42.0781C87.9661 42.0781 87.1458 41.7721 86.5859 41.1602C86.026 40.5482 85.4466 39.7214 84.8477 38.6797C84.2617 37.638 83.7799 37.1172 83.4023 37.1172C82.4258 37.0781 81.4557 36.9805 80.4922 36.8242C79.5417 36.6549 78.6562 36.3164 77.8359 35.8086C77.0156 35.3008 76.6055 34.6042 76.6055 33.7188C76.6055 33.1328 76.8008 32.7161 77.1914 32.4688C77.5951 32.2083 78.0508 32.0781 78.5586 32.0781C79.1836 32.0781 79.6849 32.1693 80.0625 32.3516C80.4401 32.5339 80.9023 32.8138 81.4492 33.1914C82.0091 33.556 82.5625 33.8359 83.1094 34.0312C83.6693 34.2266 84.418 34.3242 85.3555 34.3242C86.0195 34.3242 86.8984 34.207 87.9922 33.9727C89.099 33.7383 90.0755 33.3932 90.9219 32.9375C91.7682 32.4688 92.1914 31.9023 92.1914 31.2383C92.1914 30.8737 92.0612 30.5807 91.8008 30.3594C91.5404 30.125 91.2409 29.9688 90.9023 29.8906C90.5638 29.7995 90.2122 29.7539 89.8477 29.7539C89.3659 29.7539 88.8516 29.8255 88.3047 29.9688C87.7708 30.112 86.7292 30.3919 85.1797 30.8086C83.6302 31.2253 82.6797 31.4336 82.3281 31.4336C81.4297 31.4336 80.5052 31.1797 79.5547 30.6719C78.6172 30.151 77.8294 29.4284 77.1914 28.5039C76.5664 27.5794 76.2474 26.5703 76.2344 25.4766C76.2344 24.2917 76.6771 23.3346 77.5625 22.6055C78.4479 21.8633 79.5091 21.3359 80.7461 21.0234C81.9831 20.7109 83.1484 20.5547 84.2422 20.5547C84.9714 20.5547 85.8893 20.6719 86.9961 20.9062C88.1159 21.1276 88.9688 21.3164 89.5547 21.4727V18.1523H74.0078V15.8086H94.1641V18.1523ZM115.414 18.1523H99.6523V24.0312C99.9388 23.7188 100.264 23.3737 100.629 22.9961C100.993 22.6185 101.41 22.2604 101.879 21.9219C102.348 21.5833 102.921 21.2904 103.598 21.043C104.275 20.7956 105.036 20.6719 105.883 20.6719C107.484 20.6719 108.897 21.1146 110.121 22C111.358 22.8724 112.322 23.9922 113.012 25.3594C113.702 26.7266 114.047 28.0742 114.047 29.4023C114.047 30.7826 113.715 32.0586 113.051 33.2305C112.387 34.4023 111.723 35.3138 111.059 35.9648C110.395 36.6159 109.9 37.0651 109.574 37.3125L106.371 35.3984C106.553 35.138 106.944 34.7018 107.543 34.0898C108.142 33.4779 108.669 32.8724 109.125 32.2734C109.581 31.6745 109.984 30.9258 110.336 30.0273C110.688 29.1289 110.87 28.1198 110.883 27C110.883 25.6328 110.557 24.526 109.906 23.6797C109.255 22.8203 108.357 22.3906 107.211 22.3906C106.143 22.4297 105.004 22.8138 103.793 23.543C102.595 24.2721 101.586 25.1836 100.766 26.2773C99.9453 27.3711 99.5352 28.4258 99.5352 29.4414V37.1953L95.8828 35.2422V18.1523H93.7344V15.8086H95.8828C95.8828 13.6992 95.5833 11.8112 94.9844 10.1445C94.3854 8.46484 93.6888 7.08464 92.8945 6.00391C92.1003 4.92318 91.4167 4.1224 90.8438 3.60156C90.2578 3.08073 89.8346 2.73568 89.5742 2.56641L93.5195 2.52734C94.4701 3.04818 95.4206 4.00521 96.3711 5.39844C97.3346 6.77865 98.1224 8.41276 98.7344 10.3008C99.3464 12.1758 99.6523 14.0117 99.6523 15.8086H115.414V18.1523ZM136.625 18.1523H121.781V25.4375C122.042 25.112 122.491 24.6172 123.129 23.9531C123.78 23.2891 124.613 22.625 125.629 21.9609C126.658 21.2969 127.68 20.9648 128.695 20.9648C129.75 20.9648 130.72 21.1862 131.605 21.6289C132.491 22.0586 133.246 22.6315 133.871 23.3477C134.509 24.0508 134.991 24.819 135.316 25.6523C135.655 26.4857 135.824 27.2799 135.824 28.0352C135.824 29.1549 135.531 30.2617 134.945 31.3555C134.359 32.4362 133.604 33.3997 132.68 34.2461C131.768 35.0794 130.811 35.75 129.809 36.2578C128.819 36.7526 127.966 37 127.25 37C126.352 37 125.538 36.7331 124.809 36.1992C124.092 35.6523 123.031 34.6628 121.625 33.2305V37.2344L118.227 35.7695V18.1523H115.023V15.8086H118.227C118.227 14.1289 117.966 12.4948 117.445 10.9062C116.938 9.30469 116.332 7.89844 115.629 6.6875C114.926 5.47656 114.203 4.40234 113.461 3.46484C112.706 2.52734 112.12 1.8763 111.703 1.51172H115.98C116.488 1.94141 117.009 2.44922 117.543 3.03516C118.077 3.60807 118.682 4.48698 119.359 5.67188C120.036 6.85677 120.609 8.29557 121.078 9.98828C121.547 11.681 121.781 13.6211 121.781 15.8086H136.625V18.1523ZM133.656 30.0469C133.656 29.513 133.474 28.8945 133.109 28.1914C132.758 27.4753 132.263 26.7852 131.625 26.1211C130.987 25.457 130.206 24.8971 129.281 24.4414C128.37 23.9857 127.4 23.7578 126.371 23.7578C125.746 23.7578 125.108 23.9466 124.457 24.3242C123.819 24.7018 123.285 25.138 122.855 25.6328C122.426 26.1146 122.211 26.4792 122.211 26.7266C122.211 27.625 122.602 28.7383 123.383 30.0664C124.177 31.3815 125.18 32.5273 126.391 33.5039C127.602 34.4805 128.786 34.9688 129.945 34.9688C130.609 34.9688 131.221 34.7214 131.781 34.2266C132.354 33.7318 132.81 33.1003 133.148 32.332C133.487 31.5638 133.656 30.8021 133.656 30.0469ZM158.344 18.1523H141.996V30.6719C142.022 31.5833 142.191 32.4492 142.504 33.2695C142.829 34.0768 143.298 34.7279 143.91 35.2227C144.522 35.7174 145.245 35.9648 146.078 35.9648C147.289 35.9648 148.318 35.6979 149.164 35.1641C150.01 34.6172 150.674 33.9596 151.156 33.1914C151.638 32.4102 151.983 31.6549 152.191 30.9258C152.4 30.1836 152.504 29.5846 152.504 29.1289V21.3555H156.469V37.9961C156.195 37.8398 155.603 37.5599 154.691 37.1562C153.793 36.7526 153.051 36.4206 152.465 36.1602V34.5977C151.788 35.0924 151.13 35.5286 150.492 35.9062C149.854 36.2708 149.197 36.5443 148.52 36.7266C147.842 36.9089 147.055 37 146.156 37C144.854 37 143.585 36.6615 142.348 35.9844C141.124 35.3073 140.134 34.3828 139.379 33.2109C138.637 32.0391 138.266 30.7695 138.266 29.4023V18.1523H135.902V15.8086H158.344V18.1523ZM180.668 18.1523H178.109L178.07 37.2344L174.516 35.7109V32.918C173.474 34.2591 172.471 35.2747 171.508 35.9648C170.557 36.6549 169.49 37 168.305 37C167.159 37 165.876 36.5443 164.457 35.6328C163.038 34.7214 161.827 33.556 160.824 32.1367C159.835 30.7174 159.34 29.2982 159.34 27.8789C159.366 27.3451 159.548 26.6875 159.887 25.9062C160.238 25.112 160.746 24.3112 161.41 23.5039C162.087 22.6836 162.901 22.0065 163.852 21.4727C164.802 20.9388 165.863 20.6719 167.035 20.6719C168.389 20.6719 169.555 21.082 170.531 21.9023C171.508 22.7096 172.836 24.0247 174.516 25.8477V18.1523H157.797V15.8086H174.516C174.516 14.4414 174.477 13.3151 174.398 12.4297C174.333 11.5312 174.138 10.5547 173.812 9.5C173.5 8.43229 172.979 7.22786 172.25 5.88672C171.521 4.54557 170.538 3.04818 169.301 1.39453C169.249 1.39453 169.223 1.29036 169.223 1.08203C169.223 0.925781 169.262 0.821615 169.34 0.769531H173.07C174.307 2.13672 175.453 3.95312 176.508 6.21875C177.576 8.48438 178.109 11.681 178.109 15.8086H180.668V18.1523ZM173.578 27.0391C173.578 26.2188 173.109 25.418 172.172 24.6367C171.234 23.8424 170.121 23.4453 168.832 23.4453C168.35 23.4453 167.556 23.7057 166.449 24.2266C165.342 24.7474 164.333 25.5156 163.422 26.5312C162.523 27.5469 162.074 28.7578 162.074 30.1641C162.074 31.5052 162.452 32.599 163.207 33.4453C163.962 34.2917 164.822 34.7148 165.785 34.7148C166.905 34.7148 168.07 34.2461 169.281 33.3086C170.505 32.3581 171.527 31.2643 172.348 30.0273C173.168 28.7904 173.578 27.7943 173.578 27.0391ZM202.855 18.1523H200.297L200.258 37.2344L196.703 35.7109V32.918C195.661 34.2591 194.659 35.2747 193.695 35.9648C192.745 36.6549 191.677 37 190.492 37C189.346 37 188.064 36.5443 186.645 35.6328C185.225 34.7214 184.014 33.556 183.012 32.1367C182.022 30.7174 181.527 29.2982 181.527 27.8789C181.553 27.3451 181.736 26.6875 182.074 25.9062C182.426 25.112 182.934 24.3112 183.598 23.5039C184.275 22.6836 185.089 22.0065 186.039 21.4727C186.99 20.9388 188.051 20.6719 189.223 20.6719C190.577 20.6719 191.742 21.082 192.719 21.9023C193.695 22.7096 195.023 24.0247 196.703 25.8477V18.1523H179.984V15.8086H196.703C196.703 14.4414 196.664 13.3151 196.586 12.4297C196.521 11.5312 196.326 10.5547 196 9.5C195.688 8.43229 195.167 7.22786 194.438 5.88672C193.708 4.54557 192.725 3.04818 191.488 1.39453C191.436 1.39453 191.41 1.29036 191.41 1.08203C191.41 0.925781 191.449 0.821615 191.527 0.769531H195.258C196.495 2.13672 197.641 3.95312 198.695 6.21875C199.763 8.48438 200.297 11.681 200.297 15.8086H202.855V18.1523ZM195.766 27.0391C195.766 26.2188 195.297 25.418 194.359 24.6367C193.422 23.8424 192.309 23.4453 191.02 23.4453C190.538 23.4453 189.743 23.7057 188.637 24.2266C187.53 24.7474 186.521 25.5156 185.609 26.5312C184.711 27.5469 184.262 28.7578 184.262 30.1641C184.262 31.5052 184.639 32.599 185.395 33.4453C186.15 34.2917 187.009 34.7148 187.973 34.7148C189.092 34.7148 190.258 34.2461 191.469 33.3086C192.693 32.3581 193.715 31.2643 194.535 30.0273C195.355 28.7904 195.766 27.7943 195.766 27.0391ZM225.004 15.8086L224.965 18.1523H208.48L208.52 29.6758C208.52 31.2643 208.78 32.4688 209.301 33.2891C209.835 34.1094 211.026 34.5977 212.875 34.7539C213.995 34.7539 215.049 34.4089 216.039 33.7188C217.042 33.0156 217.842 32.1367 218.441 31.082C219.053 30.0143 219.359 28.9987 219.359 28.0352L219.32 20.6719L223.402 22.0781V42.0781C223.402 43.3021 223.096 44.4219 222.484 45.4375C221.885 46.4661 221.072 47.332 220.043 48.0352C219.014 48.7383 217.868 49.2656 216.605 49.6172C215.342 49.9818 214.06 50.1641 212.758 50.1641C210.258 50.1641 208.155 49.7799 206.449 49.0117C204.743 48.2435 203.487 47.3451 202.68 46.3164C201.885 45.2878 201.488 44.3958 201.488 43.6406C201.501 42.8854 201.736 42.1693 202.191 41.4922C202.634 40.8281 203.214 40.2422 203.93 39.7344C204.659 39.2396 205.499 38.8359 206.449 38.5234C207.4 38.224 208.318 38.0742 209.203 38.0742L211.684 41.3945C211.111 41.4336 210.251 41.5508 209.105 41.7461C207.96 41.9414 206.807 42.293 205.648 42.8008C204.503 43.3216 203.93 43.9987 203.93 44.832C203.969 45.1445 204.177 45.6068 204.555 46.2188C204.945 46.8438 205.622 47.4232 206.586 47.957C207.562 48.5039 208.832 48.7839 210.395 48.7969C212.009 48.7969 213.533 48.4974 214.965 47.8984C216.41 47.2995 217.562 46.4466 218.422 45.3398C219.294 44.2331 219.73 42.957 219.73 41.5117V33.5625C219.522 33.901 218.904 34.3307 217.875 34.8516C216.859 35.3724 215.219 35.6328 212.953 35.6328C211.534 35.6328 210.199 35.3659 208.949 34.832C207.712 34.2852 206.703 33.4974 205.922 32.4688C205.154 31.4401 204.77 30.2682 204.77 28.9531V18.1523H201.996V15.8086H225.004Z" fill="white"/>
</svg>
